<svg width="50" height="51" viewBox="0 0 50 51" fill="none" xmlns="http://www.w3.org/2000/svg">
<path d="M7.27539 33.3184C7.60091 33.6439 7.96712 33.8962 8.37402 34.0752C8.78092 34.2542 9.22852 34.3438 9.7168 34.3438H10.5957C11.084 34.3438 11.5316 34.2542 11.9385 34.0752C12.3454 33.8962 12.7116 33.6439 13.0371 33.3184C13.3626 32.9928 13.6149 32.6266 13.7939 32.2197C13.973 31.8128 14.0625 31.3652 14.0625 30.877C14.0625 30.1608 13.9811 29.4528 13.8184 28.7529C13.6556 28.0531 13.4115 27.3776 13.0859 26.7266L10.8398 22.2832C10.7096 22.0228 10.4818 21.8926 10.1562 21.8926C9.83073 21.8926 9.60286 22.0228 9.47266 22.2832L7.22656 26.7266C6.90104 27.3776 6.6569 28.0531 6.49414 28.7529C6.33138 29.4528 6.25 30.1608 6.25 30.877C6.25 31.3652 6.33952 31.8128 6.51855 32.2197C6.69759 32.6266 6.94987 32.9928 7.27539 33.3184ZM8.64258 27.4102L10.1562 24.3828L11.6699 27.4102C11.9303 27.9635 12.1338 28.5332 12.2803 29.1191C12.4268 29.7051 12.5 30.291 12.5 30.877C12.5 31.1374 12.4512 31.3815 12.3535 31.6094C12.2559 31.8372 12.1257 32.0488 11.9629 32.2441C11.7676 32.4069 11.556 32.5371 11.3281 32.6348C11.1003 32.7324 10.8561 32.7812 10.5957 32.7812H9.7168C9.45638 32.7812 9.21224 32.7324 8.98438 32.6348C8.75651 32.5371 8.54492 32.4069 8.34961 32.2441C8.18685 32.0488 8.05664 31.8372 7.95898 31.6094C7.86133 31.3815 7.8125 31.1374 7.8125 30.877C7.8125 30.291 7.88574 29.7051 8.03223 29.1191C8.17871 28.5332 8.38216 27.9635 8.64258 27.4102ZM34.375 34.3438H35.9375V42.1562H34.375V34.3438ZM34.375 43.7188H35.9375V45.2812H34.375V43.7188ZM46.0938 42.1562H39.0625V22.625C39.0625 22.3971 38.9893 22.21 38.8428 22.0635C38.6963 21.917 38.5091 21.8438 38.2812 21.8438H26.5625V10.125C26.5625 10.0273 26.5462 9.92969 26.5137 9.83203C26.4811 9.73438 26.416 9.653 26.3184 9.58789L23.4375 6.6582V2.3125C23.4375 2.08464 23.3643 1.89746 23.2178 1.75098C23.0713 1.60449 22.8841 1.53125 22.6562 1.53125H3.90625C3.67839 1.53125 3.49121 1.60449 3.34473 1.75098C3.19824 1.89746 3.125 2.08464 3.125 2.3125V6.6582L0.244141 9.58789C0.146484 9.653 0.0813802 9.73438 0.0488281 9.83203C0.016276 9.92969 0 10.0273 0 10.125V46.0625C0 46.2904 0.0732422 46.4775 0.219727 46.624C0.366211 46.7705 0.553385 46.8438 0.78125 46.8438H21.9727C22.1354 47.7227 22.5749 48.4632 23.291 49.0654C24.0072 49.6676 24.8372 49.9688 25.7812 49.9688H41.4062C42.0573 49.9688 42.6107 49.7409 43.0664 49.2852C43.5221 48.8294 43.75 48.276 43.75 47.625C43.75 47.3971 43.8232 47.21 43.9697 47.0635C44.1162 46.917 44.3034 46.8438 44.5312 46.8438H46.0938C46.7448 46.8438 47.2982 46.6159 47.7539 46.1602C48.2096 45.7044 48.4375 45.151 48.4375 44.5C48.4375 43.849 48.2096 43.2956 47.7539 42.8398C47.2982 42.3841 46.7448 42.1562 46.0938 42.1562ZM37.5 30.2422C37.207 30.0469 36.9059 29.9004 36.5967 29.8027C36.2874 29.7051 35.9538 29.6562 35.5957 29.6562H34.7168C34.2285 29.6562 33.7809 29.7458 33.374 29.9248C32.9671 30.1038 32.6009 30.3561 32.2754 30.6816C32.0801 30.8444 31.8685 30.9746 31.6406 31.0723C31.4128 31.1699 31.1686 31.2188 30.9082 31.2188H30.0293C29.7689 31.2188 29.5247 31.1699 29.2969 31.0723C29.069 30.9746 28.8574 30.8444 28.6621 30.6816C28.3366 30.3561 27.9704 30.1038 27.5635 29.9248C27.1566 29.7458 26.709 29.6562 26.2207 29.6562H25.3418C24.9837 29.6562 24.6501 29.7051 24.3408 29.8027C24.0316 29.9004 23.7305 30.0469 23.4375 30.2422V23.4062H37.5V30.2422ZM25 21.8438H22.6562C22.4284 21.8438 22.2412 21.917 22.0947 22.0635C21.9482 22.21 21.875 22.3971 21.875 22.625V45.2812H20.3125V10.4668L22.6562 8.12305L25 10.4668V21.8438ZM4.24805 7.78125H20.752L19.1895 9.34375H2.68555L4.24805 7.78125ZM18.75 10.9062V17.1562H1.5625V10.9062H18.75ZM18.75 18.7188V37.4688H1.5625V18.7188H18.75ZM4.6875 3.09375H21.875V6.21875H4.6875V3.09375ZM1.5625 45.2812V39.0312H18.75V45.2812H1.5625ZM25.7812 48.4062C25.1302 48.4062 24.5768 48.1784 24.1211 47.7227C23.6654 47.2669 23.4375 46.7135 23.4375 46.0625V32.3418L23.9746 31.7559C24.1699 31.5931 24.3815 31.4629 24.6094 31.3652C24.8372 31.2676 25.0814 31.2188 25.3418 31.2188H26.2207C26.4811 31.2188 26.7253 31.2676 26.9531 31.3652C27.181 31.4629 27.3926 31.5931 27.5879 31.7559C27.9134 32.0814 28.2796 32.3337 28.6865 32.5127C29.0934 32.6917 29.541 32.7812 30.0293 32.7812H30.9082C31.3965 32.7812 31.8441 32.6917 32.251 32.5127C32.6579 32.3337 33.0241 32.0814 33.3496 31.7559C33.5449 31.5931 33.7565 31.4629 33.9844 31.3652C34.2122 31.2676 34.4564 31.2188 34.7168 31.2188H35.5957C35.8561 31.2188 36.1003 31.2676 36.3281 31.3652C36.556 31.4629 36.7676 31.5931 36.9629 31.7559L37.5 32.3418V46.0625C37.5 46.7135 37.2721 47.2669 36.8164 47.7227C36.3607 48.1784 35.8073 48.4062 35.1562 48.4062H25.7812ZM46.0938 45.2812H44.5312C43.8802 45.2812 43.3268 45.5091 42.8711 45.9648C42.4154 46.4206 42.1875 46.974 42.1875 47.625C42.1875 47.8529 42.1143 48.04 41.9678 48.1865C41.8213 48.333 41.6341 48.4062 41.4062 48.4062H38.2812C38.5091 48.0807 38.6963 47.7227 38.8428 47.332C38.9893 46.9414 39.0625 46.5182 39.0625 46.0625V43.7188H46.0938C46.3216 43.7188 46.5088 43.792 46.6553 43.9385C46.8018 44.085 46.875 44.2721 46.875 44.5C46.875 44.7279 46.8018 44.915 46.6553 45.0615C46.5088 45.208 46.3216 45.2812 46.0938 45.2812Z" fill="white"/>
</svg>
