<svg width="50" height="51" viewBox="0 0 50 51" fill="none" xmlns="http://www.w3.org/2000/svg">
<g clip-path="url(#clip0_4137_72)">
<path d="M40.918 49.1875C40.2018 48.6667 39.4368 48.2109 38.623 47.8203C37.8092 47.4297 36.9954 47.0879 36.1816 46.7949C34.6842 46.209 32.6986 45.6393 30.2246 45.0859C27.7507 44.5326 24.8047 44.2396 21.3867 44.207C21.4518 43.7188 21.5576 43.1491 21.7041 42.498C21.8506 41.847 22.0703 41.1309 22.3633 40.3496C22.6888 39.6009 23.055 38.8929 23.4619 38.2256C23.8688 37.5583 24.3327 36.9154 24.8535 36.2969C25.1139 36.3945 25.5371 36.5247 26.123 36.6875C26.709 36.8503 27.4251 36.9316 28.2715 36.9316C29.0202 36.9316 29.8421 36.8177 30.7373 36.5898C31.6325 36.362 32.5521 35.9225 33.4961 35.2715C35.7422 33.7415 36.9954 32.0488 37.2559 30.1934C37.5163 28.3379 37.6465 27.3451 37.6465 27.2148C37.6465 27.0846 37.6058 26.9707 37.5244 26.873C37.443 26.7754 37.3372 26.694 37.207 26.6289C37.1745 26.6289 37.0117 26.5638 36.7188 26.4336C36.4258 26.3034 36.0352 26.1895 35.5469 26.0918C35.9375 25.4408 36.2793 24.7734 36.5723 24.0898C36.8652 23.4062 37.1094 22.6901 37.3047 21.9414C37.4349 21.4857 37.264 21.2008 36.792 21.0869C36.32 20.973 36.0189 21.1439 35.8887 21.5996C35.6934 22.3809 35.4248 23.1296 35.083 23.8457C34.7412 24.5618 34.3424 25.2454 33.8867 25.8965C33.1055 25.8965 32.2266 26.0104 31.25 26.2383C30.2734 26.4661 29.2806 26.9382 28.2715 27.6543C27.5228 28.1751 26.8962 28.7448 26.3916 29.3633C25.887 29.9818 25.4883 30.6003 25.1953 31.2188C24.5443 31.2839 23.9502 31.3083 23.4131 31.292C22.876 31.2757 22.4284 31.2513 22.0703 31.2188C22.4284 30.6979 22.9329 30.0469 23.584 29.2656C24.235 28.4518 24.9919 27.5973 25.8545 26.7021C26.7171 25.807 27.653 24.9199 28.6621 24.041C29.6712 23.1947 30.7129 22.446 31.7871 21.7949C32.2103 21.5671 32.2998 21.2415 32.0557 20.8184C31.8115 20.3952 31.4779 20.2975 31.0547 20.5254C28.9388 21.7624 27.0101 23.3167 25.2686 25.1885C23.527 27.0602 22.2168 28.582 21.3379 29.7539C21.2728 28.6146 21.4437 27.1335 21.8506 25.3105C22.2575 23.4876 23.3073 21.7461 25 20.0859C26.0742 18.9792 27.2624 18.1084 28.5645 17.4736C29.8665 16.8389 31.25 16.4401 32.7148 16.2773C33.4961 16.2122 34.1797 16.2041 34.7656 16.2529C35.3516 16.3018 35.8073 16.3424 36.1328 16.375C36.1654 16.5703 36.1979 16.8226 36.2305 17.1318C36.263 17.4411 36.2793 17.791 36.2793 18.1816C36.2793 18.6374 36.5234 18.8652 37.0117 18.8652C37.5 18.8652 37.7441 18.6211 37.7441 18.1328C37.7441 17.3841 37.6953 16.7819 37.5977 16.3262C37.5 15.8704 37.4512 15.6263 37.4512 15.5938C37.4186 15.4635 37.3535 15.3577 37.2559 15.2764C37.1582 15.195 37.0605 15.1217 36.9629 15.0566C36.8978 15.0566 36.4665 14.9915 35.6689 14.8613C34.8714 14.7311 33.8542 14.7148 32.6172 14.8125C31.4779 14.9427 30.127 15.3008 28.5645 15.8867C27.002 16.4727 25.4557 17.5306 23.9258 19.0605C23.7956 19.1908 23.6735 19.3128 23.5596 19.4268C23.4456 19.5407 23.3398 19.6628 23.2422 19.793C23.4375 19.1745 23.6491 18.5234 23.877 17.8398C24.1048 17.1562 24.3327 16.4727 24.5605 15.7891C25.2116 15.5938 26.1963 15.0811 27.5146 14.251C28.833 13.4209 29.8503 11.9805 30.5664 9.92969C31.4453 7.35807 31.4453 5.25032 30.5664 3.60645C29.6875 1.96257 29.2155 1.0918 29.1504 0.994141C29.0527 0.896484 28.9469 0.831379 28.833 0.798828C28.7191 0.766277 28.597 0.75 28.4668 0.75C28.3691 0.782551 27.4658 1.16504 25.7568 1.89746C24.0479 2.62988 22.7376 4.29818 21.8262 6.90234C21.0775 9.05078 21.0205 10.9062 21.6553 12.4688C22.29 14.0312 22.7702 15.0241 23.0957 15.4473C22.9004 16.0983 22.6969 16.7412 22.4854 17.376C22.2738 18.0107 22.0703 18.6211 21.875 19.207C21.7448 18.2305 21.46 17.1725 21.0205 16.0332C20.5811 14.8939 19.9219 13.7708 19.043 12.6641C17.7083 10.9714 16.3005 9.74251 14.8193 8.97754C13.3382 8.21257 12.0443 7.69987 10.9375 7.43945C9.70052 7.17904 8.68327 7.07324 7.88574 7.12207C7.08822 7.1709 6.67318 7.19531 6.64062 7.19531C6.51042 7.22786 6.38835 7.28483 6.27441 7.36621C6.16048 7.44759 6.08724 7.53711 6.05469 7.63477C6.05469 7.66732 5.96517 7.97656 5.78613 8.5625C5.6071 9.14844 5.46875 9.91341 5.37109 10.8574C5.33854 11.3457 5.56641 11.6061 6.05469 11.6387C6.54297 11.6712 6.80339 11.4596 6.83594 11.0039C6.86849 10.4505 6.93359 9.97038 7.03125 9.56348C7.12891 9.15657 7.21029 8.83919 7.27539 8.61133C7.60091 8.57878 8.05664 8.57878 8.64258 8.61133C9.22852 8.64388 9.89583 8.74154 10.6445 8.9043C12.1094 9.22982 13.444 9.7832 14.6484 10.5645C15.8529 11.3457 16.9434 12.3548 17.9199 13.5918C18.7988 14.7311 19.4661 15.9681 19.9219 17.3027C20.3776 18.6374 20.5892 20.0534 20.5566 21.5508C20.5566 22.0391 20.5322 22.4867 20.4834 22.8936C20.4346 23.3005 20.3776 23.6667 20.3125 23.9922C18.8802 21.2904 17.3503 19.0199 15.7227 17.1807C14.0951 15.3415 13.2324 14.373 13.1348 14.2754C12.8092 13.9499 12.4756 13.958 12.1338 14.2998C11.792 14.6416 11.7839 14.9753 12.1094 15.3008C12.1094 15.3333 12.9395 16.2855 14.5996 18.1572C16.2598 20.029 17.7897 22.2995 19.1895 24.9688C18.8639 24.9688 18.4896 24.9443 18.0664 24.8955C17.6432 24.8467 17.1875 24.7734 16.6992 24.6758C15.2669 24.3503 13.9567 23.8132 12.7686 23.0645C11.5804 22.3158 10.5143 21.3392 9.57031 20.1348C8.91927 19.321 8.38216 18.4583 7.95898 17.5469C7.53581 16.6354 7.22656 15.6914 7.03125 14.7148C6.93359 14.2266 6.64876 14.0312 6.17676 14.1289C5.70475 14.2266 5.51758 14.5195 5.61523 15.0078C5.8431 16.082 6.19303 17.1318 6.66504 18.1572C7.13704 19.1826 7.73112 20.151 8.44727 21.0625C9.74935 22.7227 11.1328 23.9189 12.5977 24.6514C14.0625 25.3838 15.3483 25.8802 16.4551 26.1406C17.0085 26.2383 17.57 26.3197 18.1396 26.3848C18.7093 26.4499 19.2871 26.4661 19.873 26.4336V38.7871C19.7428 38.5267 19.6208 38.2826 19.5068 38.0547C19.3929 37.8268 19.2708 37.6152 19.1406 37.4199C19.1732 36.9967 19.0592 35.7435 18.7988 33.6602C18.5384 31.5768 17.2363 29.6074 14.8926 27.752C12.3535 25.7337 9.98535 24.9036 7.78809 25.2617C5.59082 25.6198 4.42708 25.8151 4.29688 25.8477C4.19922 25.9128 4.1097 25.9941 4.02832 26.0918C3.94694 26.1895 3.88997 26.3034 3.85742 26.4336C3.82487 26.5312 3.89811 27.695 4.07715 29.9248C4.25619 32.1546 5.63151 34.2786 8.20312 36.2969C9.375 37.2409 10.5632 37.8757 11.7676 38.2012C12.972 38.5267 14.0625 38.6895 15.0391 38.6895C15.6576 38.6895 16.2272 38.6488 16.748 38.5674C17.2689 38.486 17.6758 38.3965 17.9688 38.2988C18.4896 39.2103 18.9046 40.1543 19.2139 41.1309C19.5231 42.1074 19.7103 43.1328 19.7754 44.207C17.8874 44.2396 16.0645 44.3617 14.3066 44.5732C12.5488 44.7848 10.8724 45.0859 9.27734 45.4766C8.82161 45.6068 8.65072 45.9079 8.76465 46.3799C8.87858 46.8519 9.16341 47.0391 9.61914 46.9414C11.1816 46.5508 12.8174 46.2497 14.5264 46.0381C16.2354 45.8265 18.0176 45.7044 19.873 45.6719V47.332C19.873 47.8203 20.1172 48.0645 20.6055 48.0645C21.0938 48.0645 21.3379 47.8203 21.3379 47.332V45.6719C23.4863 45.6719 25.4395 45.8021 27.1973 46.0625C28.9876 46.3229 30.5827 46.6322 31.9824 46.9902C33.3822 47.3483 34.6029 47.7227 35.6445 48.1133C36.6862 48.5365 37.5488 48.9271 38.2324 49.2852H3.22266C3.58073 49.0898 3.98763 48.8864 4.44336 48.6748C4.89909 48.4632 5.41992 48.2598 6.00586 48.0645C6.42904 47.9017 6.55924 47.5924 6.39648 47.1367C6.23372 46.681 5.92448 46.5345 5.46875 46.6973C4.55729 47.0228 3.77604 47.3564 3.125 47.6982C2.47396 48.04 1.95312 48.3249 1.5625 48.5527C0.78125 49.0085 0.325521 49.334 0.195312 49.5293C0.0651042 49.7246 0 49.8874 0 50.0176C0 50.2129 0.0732422 50.3838 0.219727 50.5303C0.366211 50.6768 0.537109 50.75 0.732422 50.75H40.7715C41.3574 50.75 41.5934 50.5384 41.4795 50.1152C41.3656 49.6921 41.1784 49.3828 40.918 49.1875ZM29.1016 28.875C30.6315 27.8008 32.0638 27.3044 33.3984 27.3857C34.7331 27.4671 35.6608 27.6055 36.1816 27.8008C36.1491 28.3542 35.9375 29.2738 35.5469 30.5596C35.1562 31.8454 34.196 33.0091 32.666 34.0508C31.2988 35.0273 29.9967 35.4993 28.7598 35.4668C27.5228 35.4342 26.5951 35.3203 25.9766 35.125C26.6927 34.474 27.4902 33.8636 28.3691 33.2939C29.248 32.7243 30.2083 32.2279 31.25 31.8047C31.6732 31.6094 31.7871 31.2839 31.5918 30.8281C31.3965 30.3724 31.0872 30.2422 30.6641 30.4375C29.7201 30.8281 28.8656 31.2594 28.1006 31.7314C27.3356 32.2035 26.6439 32.6999 26.0254 33.2207C26.1882 32.5371 26.5055 31.7965 26.9775 30.999C27.4495 30.2015 28.1576 29.4935 29.1016 28.875ZM23.584 32.7812C23.7467 32.7812 23.9176 32.7731 24.0967 32.7568C24.2757 32.7406 24.4466 32.7324 24.6094 32.7324C24.4792 33.1556 24.3896 33.5462 24.3408 33.9043C24.292 34.2624 24.2676 34.5716 24.2676 34.832C23.5514 35.5482 22.9574 36.2806 22.4854 37.0293C22.0133 37.778 21.6309 38.4941 21.3379 39.1777V32.5859C21.5658 32.6185 21.875 32.6592 22.2656 32.708C22.6562 32.7568 23.0957 32.7812 23.584 32.7812ZM23.1934 7.39062C23.8118 5.60026 24.6826 4.347 25.8057 3.63086C26.9287 2.91471 27.7507 2.47526 28.2715 2.3125C28.597 2.76823 28.9795 3.63086 29.4189 4.90039C29.8584 6.16992 29.7689 7.68359 29.1504 9.44141C28.6947 10.776 28.0762 11.7933 27.2949 12.4932C26.5137 13.193 25.7975 13.6895 25.1465 13.9824C25.6348 12.5827 26.0986 11.2562 26.5381 10.0029C26.9775 8.74968 27.3763 7.69987 27.7344 6.85352C27.8971 6.43034 27.7507 6.12109 27.2949 5.92578C26.8392 5.73047 26.5299 5.86068 26.3672 6.31641C26.0091 7.16276 25.6022 8.23698 25.1465 9.53906C24.6908 10.8411 24.2188 12.2246 23.7305 13.6895C23.3724 13.0384 23.0794 12.1676 22.8516 11.0771C22.6237 9.98665 22.7376 8.75781 23.1934 7.39062ZM9.08203 35.1738C8.17057 34.4251 7.41374 33.5869 6.81152 32.6592C6.20931 31.7314 5.77799 30.7142 5.51758 29.6074C5.38737 29.054 5.31413 28.5576 5.29785 28.1182C5.28158 27.6787 5.27344 27.3288 5.27344 27.0684C5.89193 26.9056 7.04753 26.8079 8.74023 26.7754C10.4329 26.7428 12.1908 27.4427 14.0137 28.875C14.9251 29.5911 15.6657 30.4131 16.2354 31.3408C16.805 32.2686 17.2201 33.2858 17.4805 34.3926C17.513 34.5553 17.5456 34.71 17.5781 34.8564C17.6107 35.0029 17.627 35.1413 17.627 35.2715C17.3991 34.9785 17.1631 34.7018 16.9189 34.4414C16.6748 34.181 16.4225 33.9368 16.1621 33.709C14.9251 32.5371 13.7777 31.6826 12.7197 31.1455C11.6618 30.6084 11.1003 30.3398 11.0352 30.3398C10.612 30.1445 10.3109 30.2747 10.1318 30.7305C9.9528 31.1862 10.0749 31.5117 10.498 31.707C10.5306 31.707 11.027 31.9512 11.9873 32.4395C12.9476 32.9277 14.0137 33.709 15.1855 34.7832C15.5436 35.1413 15.8854 35.5075 16.2109 35.8818C16.5365 36.2562 16.8457 36.6387 17.1387 37.0293C16.3249 37.1921 15.1693 37.2246 13.6719 37.127C12.1745 37.0293 10.6445 36.3783 9.08203 35.1738Z" fill="white"/>
</g>
<defs>
<clipPath id="clip0_4137_72">
<rect width="50" height="50" fill="white" transform="matrix(1 0 0 -1 0 50.75)"/>
</clipPath>
</defs>
</svg>
