<svg width="50" height="51" viewBox="0 0 50 51" fill="none" xmlns="http://www.w3.org/2000/svg">
<path d="M48.4375 28.8262C48.4375 27.1335 48.0469 25.5221 47.2656 23.9922C46.4844 22.4622 45.4102 21.1764 44.043 20.1348C43.75 19.9395 43.4326 19.7848 43.0908 19.6709C42.749 19.557 42.3991 19.5 42.041 19.5C41.6178 19.5 41.2028 19.5814 40.7959 19.7441C40.389 19.9069 40.0391 20.1348 39.7461 20.4277C39.681 20.3952 39.624 20.3545 39.5752 20.3057C39.5264 20.2568 39.4694 20.2161 39.4043 20.1836C39.209 19.9883 38.9811 19.8418 38.7207 19.7441C38.4603 19.6465 38.1999 19.5814 37.9395 19.5488L38.2812 15.7891C38.2812 15.724 38.2812 15.667 38.2812 15.6182C38.2812 15.5693 38.2812 15.5286 38.2812 15.4961C38.2812 14.6497 37.9883 13.9336 37.4023 13.3477C36.8164 12.7617 36.1003 12.4688 35.2539 12.4688H35.0586C34.2122 12.4688 33.4961 12.7617 32.9102 13.3477C32.3242 13.9336 32.0312 14.6497 32.0312 15.4961C32.0312 15.5286 32.0312 15.5693 32.0312 15.6182C32.0312 15.667 32.0312 15.724 32.0312 15.7891L32.373 19.5488C32.1452 19.6139 31.9092 19.6953 31.665 19.793C31.4209 19.8906 31.2012 20.0046 31.0059 20.1348C30.9408 20.1999 30.8757 20.265 30.8105 20.3301C30.7454 20.3952 30.6803 20.444 30.6152 20.4766C30.5827 20.444 30.5501 20.4115 30.5176 20.3789C30.485 20.3464 30.4362 20.3138 30.3711 20.2812C30.4036 20.151 30.4281 20.0208 30.4443 19.8906C30.4606 19.7604 30.4688 19.6302 30.4688 19.5C30.4688 19.0117 30.3955 18.5316 30.249 18.0596C30.1025 17.5876 29.8828 17.1562 29.5898 16.7656C29.8828 16.375 30.1025 15.9437 30.249 15.4717C30.3955 14.9997 30.4688 14.5195 30.4688 14.0312C30.4688 12.6966 29.9805 11.5654 29.0039 10.6377C28.0273 9.70996 26.8555 9.27864 25.4883 9.34375C25.2604 8.62761 24.8698 8.00911 24.3164 7.48828C23.763 6.96745 23.1283 6.60938 22.4121 6.41406C21.9238 5.82812 21.3379 5.38054 20.6543 5.07129C19.9707 4.76204 19.2383 4.6237 18.457 4.65625C18.1315 3.74479 17.57 2.99609 16.7725 2.41016C15.9749 1.82422 15.0716 1.53125 14.0625 1.53125C13.2161 1.53125 12.4349 1.74284 11.7188 2.16602C11.0026 2.58919 10.4329 3.15886 10.0098 3.875C8.9681 3.90755 8.04036 4.25749 7.22656 4.9248C6.41276 5.59212 5.87565 6.41406 5.61523 7.39062C4.41081 7.84636 3.43424 8.61133 2.68555 9.68555C1.93685 10.7598 1.5625 11.9479 1.5625 13.25C1.5625 14.2917 1.80664 15.2682 2.29492 16.1797C2.7832 17.0911 3.45052 17.8398 4.29688 18.4258C4.16667 18.7188 4.06901 19.0199 4.00391 19.3291C3.9388 19.6383 3.90625 19.9557 3.90625 20.2812C3.90625 20.9974 4.05273 21.6647 4.3457 22.2832C4.63867 22.9017 5.06185 23.4388 5.61523 23.8945C5.55013 24.0573 5.50944 24.2282 5.49316 24.4072C5.47689 24.5863 5.46875 24.7734 5.46875 24.9688C5.46875 26.1732 5.86751 27.2148 6.66504 28.0938C7.46256 28.9727 8.43099 29.4772 9.57031 29.6074L11.3281 34.4414C10.8724 34.7669 10.4574 35.1331 10.083 35.54C9.70866 35.9469 9.375 36.3945 9.08203 36.8828L5.0293 35.9551C4.93164 35.9551 4.84212 35.9469 4.76074 35.9307C4.67936 35.9144 4.60612 35.9062 4.54102 35.9062C3.92253 35.9062 3.40169 36.1178 2.97852 36.541C2.55534 36.9642 2.34375 37.485 2.34375 38.1035V38.3965C2.34375 38.5267 2.35189 38.6406 2.36816 38.7383C2.38444 38.8359 2.40885 38.9336 2.44141 39.0312H2.34375C1.69271 39.0312 1.13932 39.2591 0.683594 39.7148C0.227865 40.1706 0 40.724 0 41.375C0 42.026 0.227865 42.5794 0.683594 43.0352C1.13932 43.4909 1.69271 43.7188 2.34375 43.7188H2.44141C2.40885 43.8164 2.38444 43.9141 2.36816 44.0117C2.35189 44.1094 2.34375 44.2233 2.34375 44.3535V44.6465C2.34375 45.265 2.55534 45.7858 2.97852 46.209C3.40169 46.6322 3.92253 46.8438 4.54102 46.8438C4.60612 46.8438 4.67936 46.8356 4.76074 46.8193C4.84212 46.8031 4.93164 46.7949 5.0293 46.7949L9.08203 45.8672C9.86328 47.1042 10.8968 48.097 12.1826 48.8457C13.4684 49.5944 14.8763 49.9688 16.4062 49.9688H16.6016C16.7969 49.9688 17.0085 49.9606 17.2363 49.9443C17.4642 49.9281 17.6921 49.9036 17.9199 49.8711L44.6777 45.7695C45.7845 45.5742 46.6878 45.0697 47.3877 44.2559C48.0876 43.4421 48.4375 42.4818 48.4375 41.375C48.4375 40.4961 48.2015 39.6986 47.7295 38.9824C47.2575 38.2663 46.6471 37.7292 45.8984 37.3711C46.7122 36.4271 47.3389 35.361 47.7783 34.1729C48.2178 32.9847 48.4375 31.7559 48.4375 30.4863V28.8262ZM38.4766 21.4043C39.6484 22.2832 40.5599 23.3981 41.2109 24.749C41.862 26.0999 42.1875 27.5241 42.1875 29.0215V31.8535C42.1875 32.6673 42.0898 33.4567 41.8945 34.2217C41.6992 34.9867 41.4062 35.7272 41.0156 36.4434L34.7656 35.4668C34.6354 34.9134 34.5378 34.3438 34.4727 33.7578C34.4076 33.1719 34.375 32.5859 34.375 32V28.875C34.375 28.4518 34.3913 28.0449 34.4238 27.6543C34.4564 27.2637 34.5052 26.873 34.5703 26.4824C34.668 26.515 34.7656 26.5312 34.8633 26.5312C34.9609 26.5312 35.0586 26.5312 35.1562 26.5312C36.263 26.5312 37.1908 26.3115 37.9395 25.8721C38.6882 25.4326 39.0625 24.8711 39.0625 24.1875C39.0625 23.8294 38.9404 23.4876 38.6963 23.1621C38.4521 22.8366 38.1022 22.5762 37.6465 22.3809L37.793 21.1113C37.9232 21.1439 38.0452 21.1846 38.1592 21.2334C38.2731 21.2822 38.3789 21.3392 38.4766 21.4043ZM35.0586 14.0312H35.2539C35.6445 14.0312 35.9863 14.1777 36.2793 14.4707C36.5723 14.7637 36.7188 15.1055 36.7188 15.4961C36.7188 15.5286 36.7188 15.5531 36.7188 15.5693C36.7188 15.5856 36.7188 15.61 36.7188 15.6426L35.9863 23.4062L36.6211 23.6016C36.9466 23.7318 37.1745 23.8538 37.3047 23.9678C37.4349 24.0817 37.5 24.1549 37.5 24.1875C37.5 24.2852 37.2966 24.4398 36.8896 24.6514C36.4827 24.863 35.9049 24.9688 35.1562 24.9688C34.4076 24.9688 33.8298 24.863 33.4229 24.6514C33.0159 24.4398 32.8125 24.2852 32.8125 24.1875C32.8125 24.1549 32.8776 24.0817 33.0078 23.9678C33.138 23.8538 33.3659 23.7318 33.6914 23.6016L34.3262 23.4062L33.5938 15.6426C33.5938 15.61 33.5938 15.5856 33.5938 15.5693C33.5938 15.5531 33.5938 15.5286 33.5938 15.4961C33.5938 15.1055 33.7402 14.7637 34.0332 14.4707C34.3262 14.1777 34.668 14.0312 35.0586 14.0312ZM32.5195 21.1113L32.666 22.3809C32.2103 22.5762 31.8604 22.8366 31.6162 23.1621C31.3721 23.4876 31.25 23.8294 31.25 24.1875C31.25 24.6107 31.4128 24.9932 31.7383 25.335C32.0638 25.6768 32.5033 25.9616 33.0566 26.1895C32.9915 26.6126 32.9346 27.0521 32.8857 27.5078C32.8369 27.9635 32.8125 28.4193 32.8125 28.875V32C32.8125 32.5534 32.8369 33.0986 32.8857 33.6357C32.9346 34.1729 33.0078 34.7018 33.1055 35.2227L28.5156 34.4902C28.3854 34.0671 28.2878 33.6357 28.2227 33.1963C28.1576 32.7568 28.125 32.3092 28.125 31.8535V29.0215C28.125 27.5241 28.4587 26.0999 29.126 24.749C29.7933 23.3981 30.7292 22.2832 31.9336 21.4043C32.0312 21.3392 32.1289 21.2822 32.2266 21.2334C32.3242 21.1846 32.4219 21.1439 32.5195 21.1113ZM24.0723 33.8555C23.877 33.3021 23.7223 32.7487 23.6084 32.1953C23.4945 31.6419 23.4375 31.0723 23.4375 30.4863V28.8262C23.4375 27.3939 23.7712 26.0186 24.4385 24.7002C25.1058 23.3818 26.0254 22.2832 27.1973 21.4043C27.36 21.3066 27.5309 21.2253 27.71 21.1602C27.889 21.0951 28.0762 21.0625 28.2715 21.0625C28.4993 21.0625 28.7191 21.1113 28.9307 21.209C29.1423 21.3066 29.3294 21.4206 29.4922 21.5508C28.5482 22.5599 27.8239 23.7074 27.3193 24.9932C26.8148 26.279 26.5625 27.6217 26.5625 29.0215V31.8535C26.5625 32.2767 26.5869 32.6836 26.6357 33.0742C26.6846 33.4648 26.7578 33.8555 26.8555 34.2461L24.0723 33.8555ZM24.1699 10.3691L24.3164 11.1504L25.0977 11.0039C25.2279 10.9714 25.3499 10.9469 25.4639 10.9307C25.5778 10.9144 25.6836 10.9062 25.7812 10.9062C26.6276 10.9062 27.36 11.2155 27.9785 11.834C28.597 12.4525 28.9062 13.1849 28.9062 14.0312C28.9062 14.4544 28.833 14.8532 28.6865 15.2275C28.54 15.6019 28.3203 15.9355 28.0273 16.2285L27.4902 16.7656L28.0273 17.3027C28.3203 17.5957 28.54 17.9294 28.6865 18.3037C28.833 18.6781 28.9062 19.0768 28.9062 19.5C28.9062 19.5 28.9062 19.5081 28.9062 19.5244C28.9062 19.5407 28.9062 19.5488 28.9062 19.5488C28.8086 19.5488 28.7028 19.5407 28.5889 19.5244C28.4749 19.5081 28.3691 19.5 28.2715 19.5C27.9134 19.5 27.5635 19.557 27.2217 19.6709C26.8799 19.7848 26.5625 19.9395 26.2695 20.1348C25.5859 20.6556 24.9593 21.2578 24.3896 21.9414C23.82 22.625 23.3561 23.3411 22.998 24.0898C22.8353 23.6341 22.6807 23.1865 22.5342 22.7471C22.3877 22.3076 22.2331 21.8763 22.0703 21.4531C22.4284 19.5651 23.0876 18.0921 24.0479 17.0342C25.0081 15.9762 25.4883 15.431 25.4883 15.3984L25 14.8125L24.5117 14.2266C24.4466 14.2591 24.0072 14.6986 23.1934 15.5449C22.3796 16.3913 21.6797 17.5794 21.0938 19.1094C20.2799 17.2539 19.5475 15.7646 18.8965 14.6416C18.2454 13.5186 17.8874 12.9082 17.8223 12.8105L16.5527 13.6895C16.5527 13.6895 16.805 14.1289 17.3096 15.0078C17.8141 15.8867 18.4245 17.0749 19.1406 18.5723C17.9688 18.1165 16.8376 17.8968 15.7471 17.9131C14.6566 17.9294 14.0625 17.9375 13.9648 17.9375L14.1602 19.5C14.7461 19.4349 15.7064 19.4756 17.041 19.6221C18.3757 19.7686 19.4336 20.2324 20.2148 21.0137C20.4753 21.6973 20.7357 22.4053 20.9961 23.1377C21.2565 23.8701 21.5169 24.627 21.7773 25.4082C20.5729 24.8223 19.3929 24.4723 18.2373 24.3584C17.0817 24.2445 16.4714 24.1875 16.4062 24.1875V25.75C16.4388 25.75 17.1224 25.8232 18.457 25.9697C19.7917 26.1162 20.9635 26.5964 21.9727 27.4102C21.9401 27.638 21.9157 27.874 21.8994 28.1182C21.8831 28.3623 21.875 28.5983 21.875 28.8262V30.4863C21.875 31.0072 21.9157 31.528 21.9971 32.0488C22.0785 32.5697 22.2005 33.0742 22.3633 33.5625L17.9199 32.8789C17.7897 32.8789 17.6676 32.8708 17.5537 32.8545C17.4398 32.8382 17.3177 32.8138 17.1875 32.7812C16.3411 32.7812 15.6087 32.4801 14.9902 31.8779C14.3717 31.2757 14.0625 30.5352 14.0625 29.6562C14.0625 29.4609 14.0788 29.2738 14.1113 29.0947C14.1439 28.9157 14.1927 28.7285 14.2578 28.5332L14.502 27.9473L13.9648 27.6055C13.5091 27.3125 13.151 26.93 12.8906 26.458C12.6302 25.986 12.5 25.4896 12.5 24.9688C12.5 24.6758 12.5407 24.3828 12.6221 24.0898C12.7035 23.7969 12.8418 23.5202 13.0371 23.2598L13.5254 22.5273L12.7441 22.1367C11.9303 21.7135 11.2956 21.1276 10.8398 20.3789C10.3841 19.6302 10.1562 18.8164 10.1562 17.9375C10.1562 16.8958 10.4736 15.96 11.1084 15.1299C11.7432 14.2998 12.5651 13.7383 13.5742 13.4453L14.0625 13.2988L14.1113 12.8105C14.209 12.0293 14.5508 11.3864 15.1367 10.8818C15.7227 10.3773 16.4062 10.125 17.1875 10.125C17.1875 10.125 17.1956 10.125 17.2119 10.125C17.2282 10.125 17.2526 10.125 17.2852 10.125C17.3177 10.125 17.3421 10.1331 17.3584 10.1494C17.3747 10.1657 17.3991 10.1738 17.4316 10.1738L18.0176 10.2227L18.2129 9.68555C18.4733 9.09961 18.8639 8.63574 19.3848 8.29395C19.9056 7.95215 20.4753 7.78125 21.0938 7.78125C21.8424 7.78125 22.5098 8.02539 23.0957 8.51367C23.6816 9.00195 24.0397 9.62044 24.1699 10.3691ZM10.6934 28.0938H10.1562C9.3099 28.0938 8.57747 27.7845 7.95898 27.166C7.34049 26.5475 7.03125 25.8151 7.03125 24.9688C7.03125 24.7734 7.04753 24.5863 7.08008 24.4072C7.11263 24.2282 7.16146 24.041 7.22656 23.8457L7.4707 23.2598L6.93359 22.918C6.47786 22.625 6.11979 22.2425 5.85938 21.7705C5.59896 21.2985 5.46875 20.8021 5.46875 20.2812C5.46875 19.9883 5.50944 19.6953 5.59082 19.4023C5.6722 19.1094 5.81055 18.8327 6.00586 18.5723L6.49414 17.8398L5.71289 17.4492C4.89909 17.026 4.26432 16.4401 3.80859 15.6914C3.35286 14.9427 3.125 14.1289 3.125 13.25C3.125 12.2083 3.44238 11.2725 4.07715 10.4424C4.71191 9.6123 5.53385 9.05078 6.54297 8.75781L7.03125 8.61133L7.08008 8.12305C7.17773 7.3418 7.51953 6.69889 8.10547 6.19434C8.69141 5.68978 9.375 5.4375 10.1562 5.4375C10.1562 5.4375 10.1644 5.4375 10.1807 5.4375C10.1969 5.4375 10.2214 5.4375 10.2539 5.4375C10.2865 5.4375 10.3109 5.44564 10.3271 5.46191C10.3434 5.47819 10.3678 5.48633 10.4004 5.48633L10.9863 5.53516L11.1816 4.99805C11.4421 4.41211 11.8327 3.94824 12.3535 3.60645C12.8743 3.26465 13.444 3.09375 14.0625 3.09375C14.8112 3.09375 15.4785 3.33789 16.0645 3.82617C16.6504 4.31445 17.0085 4.93294 17.1387 5.68164L17.2852 6.46289L18.0664 6.31641C18.1966 6.28386 18.3187 6.25944 18.4326 6.24316C18.5465 6.22689 18.6523 6.21875 18.75 6.21875C18.9453 6.21875 19.1243 6.23503 19.2871 6.26758C19.4499 6.30013 19.6126 6.34896 19.7754 6.41406C19.1895 6.57682 18.6605 6.84538 18.1885 7.21973C17.7165 7.59407 17.334 8.04167 17.041 8.5625C15.9993 8.59505 15.0716 8.94499 14.2578 9.6123C13.444 10.2796 12.9069 11.1016 12.6465 12.0781C11.4421 12.5339 10.4655 13.2988 9.7168 14.373C8.9681 15.4473 8.59375 16.6354 8.59375 17.9375C8.59375 18.9792 8.83789 19.9557 9.32617 20.8672C9.81445 21.7786 10.4818 22.5273 11.3281 23.1133C11.1979 23.4062 11.1003 23.7074 11.0352 24.0166C10.9701 24.3258 10.9375 24.6432 10.9375 24.9688C10.9375 25.6849 11.084 26.3522 11.377 26.9707C11.6699 27.5892 12.0931 28.1263 12.6465 28.582C12.5814 28.7448 12.5407 28.9157 12.5244 29.0947C12.5081 29.2738 12.5 29.4609 12.5 29.6562C12.5 30.3398 12.6383 30.9827 12.915 31.585C13.1917 32.1872 13.5579 32.6999 14.0137 33.123C13.7858 33.1882 13.5579 33.2614 13.3301 33.3428C13.1022 33.4242 12.8906 33.5299 12.6953 33.6602L10.6934 28.0938ZM3.90625 38.3965V38.1035C3.90625 37.9082 3.98763 37.7454 4.15039 37.6152C4.31315 37.485 4.49219 37.4362 4.6875 37.4688L8.39844 38.2988C8.33333 38.429 8.2845 38.5511 8.25195 38.665C8.2194 38.779 8.18685 38.901 8.1543 39.0312H4.54102C4.37826 39.0312 4.23177 38.9661 4.10156 38.8359C3.97135 38.7057 3.90625 38.5592 3.90625 38.3965ZM1.5625 41.375C1.5625 41.1471 1.63574 40.96 1.78223 40.8135C1.92871 40.667 2.11589 40.5938 2.34375 40.5938H7.86133C7.82878 40.724 7.8125 40.8542 7.8125 40.9844C7.8125 41.1146 7.8125 41.2448 7.8125 41.375C7.8125 41.5052 7.8125 41.6354 7.8125 41.7656C7.8125 41.8958 7.82878 42.026 7.86133 42.1562H2.34375C2.11589 42.1562 1.92871 42.083 1.78223 41.9365C1.63574 41.79 1.5625 41.6029 1.5625 41.375ZM4.6875 45.2812C4.49219 45.3138 4.31315 45.265 4.15039 45.1348C3.98763 45.0046 3.90625 44.8418 3.90625 44.6465V44.3535C3.90625 44.1908 3.97135 44.0443 4.10156 43.9141C4.23177 43.7839 4.37826 43.7188 4.54102 43.7188H8.1543C8.18685 43.849 8.2194 43.971 8.25195 44.085C8.2845 44.1989 8.33333 44.321 8.39844 44.4512L4.6875 45.2812ZM46.875 41.375C46.875 42.0911 46.6471 42.7178 46.1914 43.2549C45.7357 43.792 45.1497 44.1094 44.4336 44.207L17.6758 48.3086C17.4805 48.3411 17.2933 48.3656 17.1143 48.3818C16.9352 48.3981 16.7643 48.4062 16.6016 48.4062H16.4062C14.4531 48.4062 12.793 47.7227 11.4258 46.3555C10.0586 44.9883 9.375 43.3281 9.375 41.375C9.375 39.4219 10.0586 37.7617 11.4258 36.3945C12.793 35.0273 14.4531 34.3438 16.4062 34.3438H16.6016C16.7643 34.3438 16.9352 34.3519 17.1143 34.3682C17.2933 34.3844 17.4805 34.4089 17.6758 34.4414L44.4336 38.543C45.1497 38.6406 45.7357 38.958 46.1914 39.4951C46.6471 40.0322 46.875 40.6589 46.875 41.375ZM46.875 30.4863C46.875 31.6908 46.639 32.8464 46.167 33.9531C45.695 35.0599 45.0358 36.0527 44.1895 36.9316L42.6758 36.6875C43.0339 35.9388 43.3024 35.1576 43.4814 34.3438C43.6605 33.5299 43.75 32.6999 43.75 31.8535V29.0215C43.75 27.6217 43.4977 26.279 42.9932 24.9932C42.4886 23.7074 41.7806 22.5599 40.8691 21.5508C41.0319 21.388 41.2109 21.266 41.4062 21.1846C41.6016 21.1032 41.8132 21.0625 42.041 21.0625C42.2363 21.0625 42.4235 21.0951 42.6025 21.1602C42.7816 21.2253 42.9525 21.3066 43.1152 21.4043C44.2871 22.2832 45.2067 23.3818 45.874 24.7002C46.5413 26.0186 46.875 27.3939 46.875 28.8262V30.4863ZM15.625 37.4688H17.1875V45.2812H15.625V37.4688ZM21.875 37.4688H23.4375V45.2812H21.875V37.4688ZM28.125 37.4688H29.6875V45.2812H28.125V37.4688ZM34.375 39.0312H35.9375V43.7188H34.375V39.0312ZM40.625 39.8125H42.1875V42.9375H40.625V39.8125Z" fill="white"/>
</svg>
